<?xml version="1.0" standalone="no"?>
<!DOCTYPE svg PUBLIC "-//W3C//DTD SVG 20010904//EN"
 "http://www.w3.org/TR/2001/REC-SVG-20010904/DTD/svg10.dtd">
<svg version="1.0" xmlns="http://www.w3.org/2000/svg"
 width="500.000000pt" height="500.000000pt" viewBox="0 0 500.000000 500.000000"
 preserveAspectRatio="xMidYMid meet">

<g transform="translate(0.000000,500.000000) scale(0.100000,-0.100000)"
fill="#000000" stroke="none">
<path d="M3467 3058 l-297 -171 0 -268 c0 -148 4 -269 9 -269 9 0 577 325 599
343 11 8 13 61 10 256 -2 143 -7 253 -13 263 -9 15 -45 -2 -308 -154z"/>
<path d="M2735 2635 l-230 -133 -3 -271 c-1 -149 1 -271 5 -271 4 0 109 59
234 131 l227 132 6 146 c3 80 2 203 -2 273 l-7 127 -230 -134z"/>
<path d="M3665 2402 c-201 -115 -524 -302 -625 -360 -52 -31 -135 -79 -185
-107 -105 -60 -264 -153 -317 -185 l-38 -22 0 -345 0 -345 32 6 c17 3 88 39
157 80 69 40 216 125 326 189 744 428 723 415 751 461 17 28 19 59 22 291 2
143 2 293 0 333 l-3 73 -120 -69z"/>
</g>
</svg>
